/vscmnt/brussel_pixiu_data/_data_brussel/112/vsc11236/PredSimResults/SUBJ09mtu3D/worker7.mot
version=1
nRows=9
nColumns=50
inDegrees=yes
endheader
                time	         pelvis_tilt	         pelvis_list	     pelvis_rotation	           pelvis_tx	           pelvis_ty	           pelvis_tz	       hip_flexion_r	     hip_adduction_r	      hip_rotation_r	        knee_angle_r	       ankle_angle_r	         mtp_angle_r	       hip_flexion_l	     hip_adduction_l	      hip_rotation_l	        knee_angle_l	       ankle_angle_l	         mtp_angle_l	    lumbar_extension	      lumbar_bending	     lumbar_rotation	 ercspn_r/activation	 intobl_r/activation	 extobl_r/activation	    abd_r/activation	    add_r/activation	hamstrings_r/activation	bifemsh_r/activation	glut_max_r/activation	iliopsoas_r/activation	rect_fem_r/activation	  vasti_r/activation	gastroc_r/activation	 soleus_r/activation	tib_ant_r/activation	 ercspn_l/activation	 intobl_l/activation	 extobl_l/activation	    abd_l/activation	    add_l/activation	hamstrings_l/activation	bifemsh_l/activation	glut_max_l/activation	iliopsoas_l/activation	rect_fem_l/activation	  vasti_l/activation	gastroc_l/activation	 soleus_l/activation	tib_ant_l/activation	
          1.82253869	         -2.63628379	          2.70033034	         -8.19586667	          2.25994797	          0.99308466	          0.00526636	        -13.53473685	         -4.25777749	         -2.10140629	        -11.70263682	          7.25475179	         33.66333643	         27.59159095	          0.12146593	         -7.27320011	         -6.56826336	          3.59057441	          0.22166251	        -14.22646492	         -1.01835215	          3.66692973	          0.01000000	          0.00999999	          0.00999999	          0.02673444	          0.00999999	          0.01487542	          0.25782523	          0.01446017	          0.01533869	          0.01000000	          0.00999999	          0.17502066	          0.28171901	          0.01202503	          0.03875228	          0.17415326	          0.04238235	          0.01752454	          0.20005545	          0.05251358	          0.06667848	          0.01539267	          0.10963297	          0.03238387	          0.02058325	          0.01202545	          0.01032409	          0.32838887	
          1.83468895	         -2.65528706	          2.68438453	         -8.14942316	          2.27901460	          0.99121617	          0.00466642	        -14.31209617	         -4.40236424	         -2.56922310	        -12.18034223	          6.04478274	         35.38931300	         27.40966727	          0.30046968	         -7.35266794	         -7.70491307	          3.21266929	          0.24539626	        -13.81051108	         -1.29944946	          3.79552003	          0.02986759	          0.01000000	          0.01000000	          0.02223230	          0.03481907	          0.03820074	          0.21440693	          0.01202505	          0.09092994	          0.01000001	          0.01000000	          0.14554681	          0.25681282	          0.00999999	          0.03222631	          0.14482548	          0.03524508	          0.01457337	          0.24561305	          0.04367018	          0.05544968	          0.10691323	          0.09117055	          0.02693037	          0.02050871	          0.01000034	          0.00999999	          0.33685387	
          1.84683920	         -2.65263410	          2.67557071	         -8.07100704	          2.29856173	          0.98943481	          0.00403981	        -14.95975329	         -4.55950510	         -3.05882130	        -12.97333242	          4.74779443	         37.09106633	         27.12037282	          0.44539116	         -7.30652405	         -9.20215045	          2.98376405	          0.20486099	        -13.35594271	         -1.59589016	          3.91054014	          0.02483785	          0.00999999	          0.01000000	          0.01848834	          0.02895547	          0.03176773	          0.17830036	          0.01000001	          0.10076430	          0.01000000	          0.01000000	          0.12103642	          0.22425742	          0.00999999	          0.02679934	          0.12043656	          0.02930973	          0.10359954	          0.23158982	          0.05476732	          0.04611184	          0.10002821	          0.07581723	          0.02239524	          0.01705500	          0.01396982	          0.01202504	          0.36093252	
          1.85898946	         -2.63383512	          2.66250887	         -7.95397329	          2.31827679	          0.98793415	          0.00334272	        -15.37454884	         -4.72221845	         -3.56469143	        -14.21734485	          3.34754270	         38.71263971	         26.78305326	          0.58045287	         -7.28244696	        -10.65647023	          2.60114618	          0.20368930	        -12.89721560	         -1.89018787	          4.00255460	          0.03905648	          0.00999999	          0.01000000	          0.01537486	          0.02407931	          0.02827330	          0.14827420	          0.00999999	          0.12160427	          0.01000000	          0.00999999	          0.10065362	          0.18649199	          0.00999999	          0.02228629	          0.10015478	          0.02437391	          0.16245390	          0.24801299	          0.04979333	          0.03834652	          0.11575358	          0.06304945	          0.01862384	          0.01418293	          0.01161727	          0.01000000	          0.39180794	
          1.87113972	         -2.60047013	          2.64843772	         -7.80033610	          2.33786076	          0.98687413	          0.00256973	        -15.45769082	         -4.90113578	         -4.07525109	        -16.04880593	          1.86225668	         40.12188672	         26.52875780	          0.70335034	         -7.30792513	        -12.25241963	          2.17711878	          0.17381172	        -12.46726034	         -2.18682896	          4.06686154	          0.05807126	          0.00999999	          0.01000000	          0.01278570	          0.06994890	          0.03070738	          0.12330451	          0.00999999	          0.15060174	          0.01000000	          0.00999999	          0.08370334	          0.15508634	          0.00999999	          0.02090954	          0.08328850	          0.02026929	          0.20052400	          0.27583312	          0.05540807	          0.03188889	          0.11910645	          0.05243179	          0.01548755	          0.10049616	          0.01000000	          0.00999999	          0.41512859	
          1.88328998	         -2.55572021	          2.63128183	         -7.61180354	          2.35712610	          0.98642948	          0.00174719	        -15.12282242	         -5.10044433	         -4.60510108	        -18.57989788	          0.29079400	         41.11250157	         26.29565681	          0.81928004	         -7.36370012	        -13.91348378	          2.01972882	          0.13180655	        -12.08420389	         -2.48585284	          4.10054058	          0.08007963	          0.00999999	          0.01000000	          0.01063256	          0.11136671	          0.02553629	          0.10253977	          0.00999999	          0.12524012	          0.00999999	          0.00999999	          0.06960752	          0.12896947	          0.00999999	          0.01738837	          0.06926254	          0.01685590	          0.21589095	          0.26942755	          0.05454280	          0.02651873	          0.15202337	          0.04360216	          0.01287942	          0.17219706	          0.01000001	          0.00999999	          0.41729804	
          1.89544024	         -2.50321270	          2.60494530	         -7.38619146	          2.37592092	          0.98676612	          0.00090771	        -14.31250057	         -5.32668755	         -5.18005805	        -21.88785186	         -1.28611590	         41.24196305	         25.99964568	          0.93339114	         -7.42195581	        -15.49141035	          2.22895513	          0.09866278	        -11.76207227	         -2.78305411	          4.09837627	          0.08289748	          0.00999999	          0.01000000	          0.00999999	          0.14601892	          0.02123604	          0.08527186	          0.00999999	          0.10414942	          0.00999999	          0.00999999	          0.05788546	          0.10725073	          0.00999999	          0.01446016	          0.05759858	          0.01401733	          0.21379566	          0.26507927	          0.05777343	          0.02205293	          0.17292316	          0.03625946	          0.01071051	          0.20827930	          0.01000000	          0.00999999	          0.38774507	
          1.90759049	         -2.44574835	          2.55806640	         -7.12209804	          2.39417209	          0.98792990	          0.00008301	        -13.02067646	         -5.58209670	         -5.77646726	        -25.92031431	         -3.02730484	         40.46362306	         25.57803812	          1.04825632	         -7.43003225	        -16.85196264	          2.74863787	          0.10384948	        -11.50649848	         -3.06802245	          4.05775557	          0.07154787	          0.00999999	          0.01845790	          0.00999999	          0.18750486	          0.02235520	          0.07091190	          0.00999999	          0.08661043	          0.00999999	          0.00999999	          0.04813743	          0.08918948	          0.01276993	          0.01202505	          0.04789886	          0.01165678	          0.20431156	          0.25300807	          0.06197421	          0.01833917	          0.17410472	          0.03015329	          0.01000002	          0.25626419	          0.01000001	          0.00999999	          0.34053260	
          1.91974075	         -2.38611310	          2.47725684	         -6.81848705	          2.41183072	          0.98988189	         -0.00070133	        -11.28649206	         -5.85836270	         -6.34753207	        -30.53991776	         -4.96837016	         38.56061038	         24.96631652	          1.16665886	         -7.32711800	        -17.84572306	          3.43340220	          0.21070066	        -11.32174383	         -3.32621178	          3.97809096	          0.07770465	          0.04408397	          0.06967616	          0.00999999	          0.16897515	          0.01859061	          0.05897019	          0.00999999	          0.07202505	          0.00999999	          0.00999999	          0.04003098	          0.07416978	          0.05388822	          0.01000002	          0.03983259	          0.00999999	          0.18291373	          0.21040105	          0.06084242	          0.01525082	          0.14478511	          0.02507541	          0.01000002	          0.26611307	          0.01000001	          0.00999999	          0.28975223	
